<svg width="1599" height="1599" viewBox="0 0 1599 1599" fill="none" xmlns="http://www.w3.org/2000/svg">
<rect x="22.0723" y="799.072" width="1098.84" height="1098.84" transform="rotate(-45 22.0723 799.072)" fill="#171E32"/>
<g filter="url(#filter0_f_2052_79)">
<rect x="247.071" y="799.072" width="780.647" height="780.647" transform="rotate(-45 247.071 799.072)" fill="#283456" fill-opacity="0.65"/>
</g>
<rect x="7.07104" y="799.072" width="1120.06" height="1120.06" transform="rotate(-45 7.07104 799.072)" stroke="#6C5C3B" stroke-width="10"/>
<rect x="56.0712" y="799.072" width="1050.76" height="1050.76" transform="rotate(-45 56.0712 799.072)" stroke="#8D7647" stroke-width="10"/>
<rect x="99.0726" y="799.072" width="989.948" height="989.948" transform="rotate(-45 99.0726 799.072)" stroke="#B2904E" stroke-width="10"/>
<path d="M882.115 675.554L758.198 800.418C756.212 802.418 752.967 802.383 751.025 800.341L632.311 675.478C630.49 673.563 630.474 670.563 632.272 668.628L750.987 540.927C752.936 538.83 756.244 538.795 758.238 540.849L882.155 668.55C884.052 670.505 884.035 673.62 882.115 675.554Z" stroke="#E0BC74" stroke-width="13"/>
<path d="M842.45 802.311L718.489 673.619C716.594 671.651 716.629 668.526 718.568 666.601L842.529 543.586C844.487 541.644 847.648 541.653 849.594 543.607L972.135 666.621C974.048 668.541 974.082 671.635 972.214 673.598L849.672 802.29C847.709 804.351 844.424 804.361 842.45 802.311Z" stroke="#E0BC74" stroke-width="12"/>
<path d="M888.572 761.071L801.072 671.571" stroke="#E0BC74" stroke-width="12"/>
<path d="M648.375 971.586V1000.75C645.665 1004.28 642.013 1007.82 637.418 1011.35C632.823 1014.89 627.167 1017.83 620.451 1020.19C613.853 1022.43 606.077 1023.55 597.123 1023.55C584.634 1023.43 573.617 1020.72 564.074 1015.42C554.53 1010 547.049 1002.51 541.629 992.971C536.327 983.309 533.676 972.057 533.676 959.215C533.676 946.372 536.327 935.12 541.629 925.459C547.049 915.797 554.53 908.316 564.074 903.014C573.617 897.594 584.634 894.884 597.123 894.884C603.603 894.884 609.435 895.414 614.619 896.475C619.803 897.535 624.457 899.008 628.581 900.893C632.823 902.66 636.652 904.663 640.069 906.902L643.603 931.821H642.013C640.246 924.987 637.3 919.273 633.176 914.678C629.17 909.965 624.104 906.372 617.977 903.897C611.85 901.423 604.899 900.186 597.123 900.186C587.226 900.186 578.507 902.66 570.966 907.609C563.426 912.557 557.535 919.45 553.293 928.286C549.051 937.123 546.931 947.432 546.931 959.215C546.931 970.997 549.051 981.306 553.293 990.143C557.535 998.979 563.426 1005.87 570.966 1010.82C578.507 1015.65 587.226 1018.13 597.123 1018.24C602.307 1018.24 607.255 1017.65 611.968 1016.48C616.799 1015.18 621.335 1013.41 625.577 1011.17C629.818 1008.82 633.589 1006.05 636.888 1002.87L637.064 971.586C637.064 966.284 634.06 963.633 628.051 963.633H625.223V961.866H659.863V963.633H657.212C651.085 963.633 648.14 966.284 648.375 971.586ZM696.597 897.358V975.121C696.597 983.604 698.129 991.085 701.192 997.566C704.373 1004.05 708.792 1009.11 714.447 1012.76C720.102 1016.3 726.642 1018.07 734.064 1018.07C741.958 1018.07 748.851 1016.36 754.742 1012.94C760.633 1009.52 765.228 1004.81 768.527 998.803C771.826 992.676 773.476 985.548 773.476 977.418V897.358H781.782V977.418C781.782 986.608 779.779 994.679 775.773 1001.63C771.885 1008.46 766.348 1013.83 759.16 1017.71C751.973 1021.6 743.608 1023.55 734.064 1023.55C724.285 1023.55 715.684 1021.66 708.261 1017.89C700.956 1014 695.242 1008.64 691.118 1001.81C687.112 994.856 685.109 986.785 685.109 977.595V897.358H696.597ZM685.64 897.358V907.962H685.109C685.109 905.37 684.167 903.249 682.282 901.6C680.514 899.95 678.335 899.125 675.743 899.125C675.743 899.125 675.271 899.125 674.329 899.125C673.386 899.125 672.915 899.125 672.915 899.125V897.358H685.64ZM708.792 897.358V899.125C708.792 899.125 708.32 899.125 707.378 899.125C706.435 899.125 705.964 899.125 705.964 899.125C703.372 899.125 701.133 899.95 699.248 901.6C697.481 903.249 696.597 905.37 696.597 907.962H696.244V897.358H708.792ZM774.006 897.358V907.962H773.476C773.476 905.37 772.533 903.249 770.648 901.6C768.881 899.95 766.701 899.125 764.109 899.125C764.109 899.125 763.638 899.125 762.695 899.125C761.752 899.125 761.281 899.125 761.281 899.125V897.358H774.006ZM793.977 897.358V899.125C793.977 899.125 793.505 899.125 792.563 899.125C791.62 899.125 791.149 899.125 791.149 899.125C788.557 899.125 786.318 899.95 784.433 901.6C782.666 903.249 781.782 905.37 781.782 907.962H781.429V897.358H793.977ZM809.91 965.577H862.93L863.99 969.465L862.93 973.53H809.91L808.85 969.465L809.91 965.577ZM942.086 1023.55L943.853 1018.95C945.974 1018.95 948.743 1019.36 952.159 1020.19C955.694 1021.01 959.759 1022.13 964.354 1023.55C968.949 1025.08 974.015 1026.9 979.553 1029.02C985.208 1031.14 991.217 1033.5 997.58 1036.09C1003.94 1038.69 1010.66 1041.51 1017.73 1044.58C1024.33 1047.4 1031.45 1049.47 1039.11 1050.76C1046.89 1052.18 1054.72 1052.65 1062.62 1052.18C1070.51 1051.7 1077.99 1050.11 1085.06 1047.4C1092.25 1044.81 1098.55 1040.98 1103.97 1035.92L1104.68 1036.8C1103.85 1039.04 1101.85 1041.75 1098.67 1044.93C1095.61 1048.23 1091.48 1051.35 1086.3 1054.3C1081.12 1057.36 1074.99 1059.72 1067.92 1061.37C1060.97 1063.13 1053.13 1063.66 1044.41 1062.96C1035.81 1062.25 1026.45 1059.72 1016.31 1055.36C1010.89 1053 1005.12 1050.23 998.994 1047.05C992.867 1043.87 986.563 1040.69 980.083 1037.51C973.603 1034.33 967.123 1031.44 960.643 1028.85C954.28 1026.37 948.095 1024.61 942.086 1023.55ZM944.03 894.884C956.519 894.884 967.476 897.594 976.902 903.014C986.446 908.316 993.868 915.797 999.17 925.459C1004.59 935.12 1007.3 946.372 1007.3 959.215C1007.3 972.057 1004.59 983.309 999.17 992.971C993.868 1002.63 986.446 1010.17 976.902 1015.59C967.358 1020.89 956.401 1023.55 944.03 1023.55C931.541 1023.55 920.524 1020.89 910.981 1015.59C901.437 1010.17 893.955 1002.63 888.536 992.971C883.234 983.309 880.583 972.057 880.583 959.215C880.583 946.372 883.234 935.12 888.536 925.459C893.955 915.797 901.437 908.316 910.981 903.014C920.524 897.594 931.541 894.884 944.03 894.884ZM944.03 1018.24C954.045 1018.24 962.763 1015.77 970.186 1010.82C977.727 1005.87 983.559 998.979 987.683 990.143C991.924 981.306 994.045 970.997 994.045 959.215C994.045 947.432 991.924 937.123 987.683 928.286C983.559 919.45 977.727 912.557 970.186 907.609C962.763 902.66 954.045 900.186 944.03 900.186C934.015 900.186 925.237 902.66 917.696 907.609C910.156 912.557 904.265 919.45 900.023 928.286C895.899 937.123 893.838 947.432 893.838 959.215C893.838 970.997 895.958 981.306 900.2 990.143C904.442 998.979 910.333 1005.87 917.873 1010.82C925.414 1015.77 934.133 1018.24 944.03 1018.24ZM1050.14 897.358V1021.07H1038.65V897.358H1050.14ZM1039.18 1008.17V1021.07H1025.04V1019.3C1025.04 1019.3 1025.39 1019.3 1026.1 1019.3C1026.93 1019.3 1027.34 1019.3 1027.34 1019.3C1030.4 1019.3 1032.99 1018.24 1035.11 1016.12C1037.35 1013.88 1038.53 1011.23 1038.65 1008.17H1039.18ZM1039.18 910.26H1038.65C1038.53 907.196 1037.35 904.604 1035.11 902.483C1032.99 900.245 1030.4 899.125 1027.34 899.125C1027.34 899.125 1026.93 899.125 1026.1 899.125C1025.39 899.125 1025.04 899.125 1025.04 899.125V897.358H1039.18V910.26ZM1049.61 1008.17H1050.14C1050.25 1011.23 1051.37 1013.88 1053.49 1016.12C1055.73 1018.24 1058.38 1019.3 1061.45 1019.3C1061.45 1019.3 1061.8 1019.3 1062.51 1019.3C1063.22 1019.3 1063.63 1019.3 1063.75 1019.3V1021.07H1049.61V1008.17ZM1049.61 910.26V897.358H1063.75V899.125C1063.63 899.125 1063.22 899.125 1062.51 899.125C1061.8 899.125 1061.45 899.125 1061.45 899.125C1058.38 899.125 1055.73 900.245 1053.49 902.483C1051.37 904.604 1050.25 907.196 1050.14 910.26H1049.61Z" fill="#E0BC74"/>
<defs>
<filter id="filter0_f_2052_79" x="97.0709" y="97.071" width="1404" height="1404" filterUnits="userSpaceOnUse" color-interpolation-filters="sRGB">
<feFlood flood-opacity="0" result="BackgroundImageFix"/>
<feBlend mode="normal" in="SourceGraphic" in2="BackgroundImageFix" result="shape"/>
<feGaussianBlur stdDeviation="75" result="effect1_foregroundBlur_2052_79"/>
</filter>
</defs>
</svg>
