<svg width="592" height="557" viewBox="0 0 592 557" fill="none" xmlns="http://www.w3.org/2000/svg">
<path d="M362.794 145.483L238.876 270.346C236.891 272.347 233.645 272.312 231.703 270.27L112.989 145.407C111.169 143.492 111.152 140.492 112.951 138.557L231.666 10.8556C233.615 8.7591 236.923 8.72368 238.916 10.778L362.833 138.479C364.73 140.434 364.713 143.549 362.794 145.483Z" stroke="#E0BC74" stroke-width="13"/>
<path d="M323.128 272.24L199.167 143.548C197.272 141.58 197.307 138.455 199.247 136.53L323.208 13.5153C325.165 11.5728 328.326 11.5819 330.272 13.5356L452.813 136.55C454.726 138.47 454.761 141.564 452.892 143.527L330.35 272.219C328.388 274.28 325.103 274.29 323.128 272.24Z" stroke="#E0BC74" stroke-width="12"/>
<path d="M369.25 231L281.75 141.5" stroke="#E0BC74" stroke-width="12"/>
<path d="M125.303 441.515V470.676C122.594 474.21 118.941 477.745 114.346 481.28C109.751 484.814 104.096 487.76 97.3797 490.116C90.7817 492.355 83.0054 493.474 74.051 493.474C61.5619 493.356 50.5455 490.647 41.002 485.345C31.4584 479.925 23.9767 472.443 18.5569 462.9C13.255 453.238 10.604 441.986 10.604 429.144C10.604 416.301 13.255 405.049 18.5569 395.388C23.9767 385.726 31.4584 378.245 41.002 372.943C50.5455 367.523 61.5619 364.813 74.051 364.813C80.5312 364.813 86.3634 365.343 91.5475 366.403C96.7317 367.464 101.386 368.937 105.509 370.822C109.751 372.589 113.58 374.592 116.997 376.831L120.532 401.75H118.941C117.174 394.916 114.228 389.202 110.104 384.607C106.099 379.894 101.032 376.3 94.9054 373.826C88.7787 371.352 81.8272 370.115 74.051 370.115C64.154 370.115 55.4351 372.589 47.8946 377.538C40.354 382.486 34.4629 389.379 30.2213 398.215C25.9797 407.052 23.8589 417.361 23.8589 429.144C23.8589 440.926 25.9797 451.235 30.2213 460.072C34.4629 468.908 40.354 475.801 47.8946 480.75C55.4351 485.58 64.154 488.054 74.051 488.172C79.2352 488.172 84.1837 487.583 88.8965 486.405C93.7272 485.109 98.2634 483.342 102.505 481.103C106.747 478.747 110.517 475.978 113.816 472.797L113.993 441.515C113.993 436.213 110.988 433.562 104.979 433.562H102.151V431.795H136.791V433.562H134.14C128.013 433.562 125.068 436.213 125.303 441.515ZM173.525 367.287V445.05C173.525 453.533 175.057 461.014 178.12 467.495C181.301 473.975 185.72 479.041 191.375 482.694C197.031 486.228 203.57 487.996 210.993 487.996C218.887 487.996 225.779 486.287 231.67 482.87C237.561 479.453 242.156 474.741 245.455 468.732C248.754 462.605 250.404 455.477 250.404 447.347V367.287H258.71V447.347C258.71 456.537 256.707 464.608 252.701 471.559C248.813 478.393 243.276 483.754 236.089 487.642C228.901 491.53 220.536 493.474 210.993 493.474C201.213 493.474 192.612 491.589 185.19 487.819C177.885 483.931 172.17 478.57 168.047 471.736C164.041 464.785 162.038 456.714 162.038 447.524V367.287H173.525ZM162.568 367.287V377.891H162.038C162.038 375.299 161.095 373.178 159.21 371.529C157.443 369.879 155.263 369.054 152.671 369.054C152.671 369.054 152.2 369.054 151.257 369.054C150.314 369.054 149.843 369.054 149.843 369.054V367.287H162.568ZM185.72 367.287V369.054C185.72 369.054 185.249 369.054 184.306 369.054C183.363 369.054 182.892 369.054 182.892 369.054C180.3 369.054 178.061 369.879 176.176 371.529C174.409 373.178 173.525 375.299 173.525 377.891H173.172V367.287H185.72ZM250.934 367.287V377.891H250.404C250.404 375.299 249.461 373.178 247.576 371.529C245.809 369.879 243.629 369.054 241.037 369.054C241.037 369.054 240.566 369.054 239.623 369.054C238.681 369.054 238.209 369.054 238.209 369.054V367.287H250.934ZM270.905 367.287V369.054C270.905 369.054 270.434 369.054 269.491 369.054C268.549 369.054 268.077 369.054 268.077 369.054C265.485 369.054 263.247 369.879 261.361 371.529C259.594 373.178 258.71 375.299 258.71 377.891H258.357V367.287H270.905ZM286.839 435.506H339.858L340.919 439.394L339.858 443.459H286.839L285.778 439.394L286.839 435.506ZM419.014 493.474L420.781 488.879C422.902 488.879 425.671 489.292 429.088 490.116C432.622 490.941 436.687 492.06 441.282 493.474C445.877 495.006 450.944 496.832 456.481 498.953C462.137 501.074 468.146 503.43 474.508 506.022C480.87 508.614 487.586 511.442 494.655 514.505C501.253 517.333 508.382 519.395 516.04 520.691C523.816 522.105 531.651 522.576 539.546 522.105C547.44 521.634 554.921 520.043 561.991 517.333C569.178 514.741 575.481 510.912 580.901 505.846L581.608 506.729C580.783 508.968 578.78 511.678 575.599 514.859C572.536 518.158 568.412 521.28 563.228 524.226C558.044 527.289 551.917 529.646 544.847 531.295C537.896 533.062 530.061 533.593 521.342 532.886C512.741 532.179 503.374 529.646 493.242 525.286C487.822 522.93 482.048 520.161 475.922 516.98C469.795 513.799 463.492 510.617 457.011 507.436C450.531 504.255 444.051 501.368 437.571 498.776C431.208 496.302 425.023 494.535 419.014 493.474ZM420.958 364.813C433.447 364.813 444.404 367.523 453.83 372.943C463.374 378.245 470.796 385.726 476.098 395.388C481.518 405.049 484.228 416.301 484.228 429.144C484.228 441.986 481.518 453.238 476.098 462.9C470.796 472.561 463.374 480.101 453.83 485.521C444.287 490.823 433.329 493.474 420.958 493.474C408.469 493.474 397.452 490.823 387.909 485.521C378.365 480.101 370.884 472.561 365.464 462.9C360.162 453.238 357.511 441.986 357.511 429.144C357.511 416.301 360.162 405.049 365.464 395.388C370.884 385.726 378.365 378.245 387.909 372.943C397.452 367.523 408.469 364.813 420.958 364.813ZM420.958 488.172C430.973 488.172 439.692 485.698 447.114 480.75C454.655 475.801 460.487 468.908 464.611 460.072C468.852 451.235 470.973 440.926 470.973 429.144C470.973 417.361 468.852 407.052 464.611 398.215C460.487 389.379 454.655 382.486 447.114 377.538C439.692 372.589 430.973 370.115 420.958 370.115C410.943 370.115 402.165 372.589 394.625 377.538C387.084 382.486 381.193 389.379 376.951 398.215C372.828 407.052 370.766 417.361 370.766 429.144C370.766 440.926 372.887 451.235 377.128 460.072C381.37 468.908 387.261 475.801 394.801 480.75C402.342 485.698 411.061 488.172 420.958 488.172ZM527.065 367.287V491H515.578V367.287H527.065ZM516.108 478.099V491H501.969V489.233C501.969 489.233 502.323 489.233 503.029 489.233C503.854 489.233 504.267 489.233 504.267 489.233C507.33 489.233 509.922 488.172 512.043 486.051C514.281 483.813 515.46 481.162 515.578 478.099H516.108ZM516.108 380.189H515.578C515.46 377.125 514.281 374.533 512.043 372.412C509.922 370.174 507.33 369.054 504.267 369.054C504.267 369.054 503.854 369.054 503.029 369.054C502.323 369.054 501.969 369.054 501.969 369.054V367.287H516.108V380.189ZM526.535 478.099H527.065C527.183 481.162 528.302 483.813 530.423 486.051C532.662 488.172 535.313 489.233 538.376 489.233C538.376 489.233 538.729 489.233 539.436 489.233C540.143 489.233 540.556 489.233 540.674 489.233V491H526.535V478.099ZM526.535 380.189V367.287H540.674V369.054C540.556 369.054 540.143 369.054 539.436 369.054C538.729 369.054 538.376 369.054 538.376 369.054C535.313 369.054 532.662 370.174 530.423 372.412C528.302 374.533 527.183 377.125 527.065 380.189H526.535Z" fill="#E0BC74"/>
</svg>
