<svg width="360" height="286" viewBox="0 0 360 286" fill="none" xmlns="http://www.w3.org/2000/svg">
<path d="M259.794 145.483L135.876 270.346C133.891 272.347 130.645 272.312 128.703 270.27L9.98895 145.407C8.16871 143.492 8.15188 140.492 9.95054 138.557L128.666 10.8556C130.615 8.7591 133.923 8.72368 135.916 10.778L259.833 138.479C261.73 140.434 261.713 143.549 259.794 145.483Z" stroke="#E0BC74" stroke-width="13"/>
<path d="M220.128 272.24L96.1674 143.548C94.2719 141.58 94.3071 138.455 96.2466 136.53L220.208 13.5153C222.165 11.5728 225.326 11.5819 227.272 13.5356L349.813 136.55C351.726 138.47 351.761 141.564 349.892 143.527L227.35 272.219C225.388 274.28 222.103 274.29 220.128 272.24Z" stroke="#E0BC74" stroke-width="12"/>
<path d="M266.25 231L178.75 141.5" stroke="#E0BC74" stroke-width="12"/>
</svg>
